<svg xmlns="http://www.w3.org/2000/svg" height="512pt" version="1.1" viewBox="0 0 512 512" width="512pt">
<g id="surface1">
<path d="M 512 256 C 512 397.386719 397.386719 512 256 512 C 114.613281 512 0 397.386719 0 256 C 0 114.613281 114.613281 0 256 0 C 397.386719 0 512 114.613281 512 256 Z M 512 256 " style=" stroke:none;fill-rule:nonzero;fill:rgb(25.490196%,28.627451%,32.156863%);fill-opacity:1;" />
<path d="M 512 256 C 512 235.964844 509.691406 216.46875 505.339844 197.757812 L 395.636719 88.054688 L 105.761719 363 L 150.3125 407.550781 L 137.667969 414.332031 L 234.421875 511.085938 C 241.535156 511.679688 248.730469 512 256 512 C 397.386719 512 512 397.386719 512 256 Z M 512 256 " style=" stroke:none;fill-rule:nonzero;fill:rgb(20%,22.352941%,25.098039%);fill-opacity:1;" />
<path d="M 171.667969 110 C 171.667969 91.789062 156.917969 77.027344 138.714844 77 C 120.511719 77.027344 105.761719 91.789062 105.761719 110 L 105.761719 363 L 163.667969 363 L 163.667969 131.527344 C 168.648438 125.746094 171.667969 118.230469 171.667969 110 Z M 171.667969 110 " style=" stroke:none;fill-rule:nonzero;fill:rgb(100%,83.137255%,0%);fill-opacity:1;" />
<path d="M 137.667969 143 L 374.335938 143 L 374.335938 414.332031 L 137.667969 414.332031 Z M 137.667969 143 " style=" stroke:none;fill-rule:nonzero;fill:rgb(100%,100%,61.176471%);fill-opacity:1;" />
<path d="M 255.761719 143 L 374.332031 143 L 374.332031 414.332031 L 255.761719 414.332031 Z M 255.761719 143 " style=" stroke:none;fill-rule:nonzero;fill:rgb(100%,99.215686%,47.058824%);fill-opacity:1;" />
<path d="M 371 77 L 137.667969 77 C 155.890625 77 170.667969 91.773438 170.667969 110 C 170.667969 128.226562 155.890625 143 137.667969 143 L 371 143 C 389.226562 143 404 128.226562 404 110 C 404 91.773438 389.226562 77 371 77 Z M 371 77 " style=" stroke:none;fill-rule:nonzero;fill:rgb(99.215686%,72.941176%,7.058824%);fill-opacity:1;" />
<path d="M 371 77 L 255.761719 77 L 255.761719 143 L 371 143 C 389.226562 143 404 128.226562 404 110 C 404 91.773438 389.226562 77 371 77 Z M 371 77 " style=" stroke:none;fill-rule:nonzero;fill:rgb(100%,63.921569%,0%);fill-opacity:1;" />
<path d="M 163.753906 171.152344 L 348.246094 171.152344 L 348.246094 186.929688 L 163.753906 186.929688 Z M 163.753906 171.152344 " style=" stroke:none;fill-rule:nonzero;fill:rgb(100%,83.137255%,0%);fill-opacity:1;" />
<path d="M 255.761719 171.152344 L 348.246094 171.152344 L 348.246094 186.929688 L 255.761719 186.929688 Z M 255.761719 171.152344 " style=" stroke:none;fill-rule:nonzero;fill:rgb(99.215686%,72.941176%,7.058824%);fill-opacity:1;" />
<path d="M 163.753906 211.003906 L 348.246094 211.003906 L 348.246094 226.777344 L 163.753906 226.777344 Z M 163.753906 211.003906 " style=" stroke:none;fill-rule:nonzero;fill:rgb(100%,83.137255%,0%);fill-opacity:1;" />
<path d="M 255.761719 211.003906 L 348.246094 211.003906 L 348.246094 226.777344 L 255.761719 226.777344 Z M 255.761719 211.003906 " style=" stroke:none;fill-rule:nonzero;fill:rgb(99.215686%,72.941176%,7.058824%);fill-opacity:1;" />
<path d="M 163.753906 250.855469 L 348.246094 250.855469 L 348.246094 266.628906 L 163.753906 266.628906 Z M 163.753906 250.855469 " style=" stroke:none;fill-rule:nonzero;fill:rgb(100%,83.137255%,0%);fill-opacity:1;" />
<path d="M 255.761719 250.855469 L 348.246094 250.855469 L 348.246094 266.628906 L 255.761719 266.628906 Z M 255.761719 250.855469 " style=" stroke:none;fill-rule:nonzero;fill:rgb(99.215686%,72.941176%,7.058824%);fill-opacity:1;" />
<path d="M 163.753906 290.703125 L 348.246094 290.703125 L 348.246094 306.480469 L 163.753906 306.480469 Z M 163.753906 290.703125 " style=" stroke:none;fill-rule:nonzero;fill:rgb(100%,83.137255%,0%);fill-opacity:1;" />
<path d="M 255.761719 290.703125 L 348.246094 290.703125 L 348.246094 306.480469 L 255.761719 306.480469 Z M 255.761719 290.703125 " style=" stroke:none;fill-rule:nonzero;fill:rgb(99.215686%,72.941176%,7.058824%);fill-opacity:1;" />
<path d="M 163.753906 330.554688 L 348.246094 330.554688 L 348.246094 346.328125 L 163.753906 346.328125 Z M 163.753906 330.554688 " style=" stroke:none;fill-rule:nonzero;fill:rgb(100%,83.137255%,0%);fill-opacity:1;" />
<path d="M 255.761719 330.554688 L 348.246094 330.554688 L 348.246094 346.328125 L 255.761719 346.328125 Z M 255.761719 330.554688 " style=" stroke:none;fill-rule:nonzero;fill:rgb(99.215686%,72.941176%,7.058824%);fill-opacity:1;" />
<path d="M 163.753906 370.40625 L 348.246094 370.40625 L 348.246094 386.179688 L 163.753906 386.179688 Z M 163.753906 370.40625 " style=" stroke:none;fill-rule:nonzero;fill:rgb(100%,83.137255%,0%);fill-opacity:1;" />
<path d="M 255.761719 370.40625 L 348.246094 370.40625 L 348.246094 386.179688 L 255.761719 386.179688 Z M 255.761719 370.40625 " style=" stroke:none;fill-rule:nonzero;fill:rgb(99.215686%,72.941176%,7.058824%);fill-opacity:1;" />
</g>
</svg>